<?xml version="1.0" encoding="UTF-8"?>
<svg version="1.1" xmlns="http://www.w3.org/2000/svg" width="16" height="16">
<path d="M0 0 C2.875 2 2.875 2 5 4 C4.72776186 7.35760377 4.41629629 8.64317461 1.8125 10.875 C-1.67892505 12.27157002 -3.41947683 12.06653882 -7 11 C-9.375 9.4375 -9.375 9.4375 -11 8 C-10.67842796 5.02545866 -10.37860258 3.40664722 -8.3125 1.1875 C-5.24756099 -0.3863876 -3.40910465 -0.48701495 0 0 Z " fill="#C6AEB3" transform="translate(11,2)"/>
<path d="M0 0 C2.72869407 0.03287583 5.2966618 0.56397771 8 1 C7.8125 2.8125 7.8125 2.8125 7 5 C4.09303401 7.14197494 2.64478912 8 -1 8 C-1.625 5.125 -1.625 5.125 -2 2 C-1.34 1.34 -0.68 0.68 0 0 Z " fill="#C8BDC0" transform="translate(8,6)"/>
<path d="M0 0 C3.65316671 1.24976756 4.78065836 1.67098753 7 5 C5.02 5 3.04 5 1 5 C0.67 3.35 0.34 1.7 0 0 Z " fill="#B71E32" transform="translate(9,2)"/>
<path d="M0 0 C-0.33 1.65 -0.66 3.3 -1 5 C-2.98 5 -4.96 5 -7 5 C-2.25 -0 -2.25 -0 0 0 Z " fill="#B71E31" transform="translate(7,2)"/>
<path d="M0 0 C1.98 0 3.96 0 6 0 C3.63707344 2.52588702 2.33537489 3.88820837 -1 5 C-0.67 3.35 -0.34 1.7 0 0 Z " fill="#B71F33" transform="translate(10,9)"/>
<path d="M0 0 C1.98 0 3.96 0 6 0 C6.33 1.65 6.66 3.3 7 5 C1.125 2.25 1.125 2.25 0 0 Z " fill="#B72235" transform="translate(0,9)"/>
</svg>
